<svg width="1217" height="200" viewBox="0 0 1217 200" fill="none" xmlns="http://www.w3.org/2000/svg">
<path d="M195.645 64.9453H227.48V84.0859H228.652C230.54 77.25 233.665 72.1068 238.027 68.6562C242.389 65.2057 247.565 63.4805 253.555 63.4805C256.615 63.4805 259.74 63.8711 262.93 64.6523V93.3633C261.497 92.8424 259.479 92.4193 256.875 92.0938C254.336 91.7682 251.992 91.6055 249.844 91.6055C245.742 91.6055 242.096 92.4844 238.906 94.2422C235.716 96 233.177 98.5065 231.289 101.762C229.466 105.017 228.555 108.728 228.555 112.895V171H195.645V64.9453ZM315.914 172.953C305.042 172.953 295.569 170.674 287.496 166.117C279.488 161.56 273.336 155.147 269.039 146.879C264.742 138.611 262.594 129.073 262.594 118.266C262.594 107.328 264.742 97.7578 269.039 89.5547C273.336 81.3516 279.488 74.9714 287.496 70.4141C295.569 65.8568 305.042 63.5781 315.914 63.5781C326.786 63.5781 336.259 65.8568 344.332 70.4141C352.405 74.9714 358.59 81.3516 362.887 89.5547C367.184 97.7578 369.332 107.328 369.332 118.266C369.332 129.073 367.184 138.611 362.887 146.879C358.59 155.147 352.405 161.56 344.332 166.117C336.259 170.674 326.786 172.953 315.914 172.953ZM316.207 148.148C320.374 148.148 323.922 146.911 326.852 144.438C329.781 141.898 331.962 138.35 333.395 133.793C334.892 129.171 335.641 123.897 335.641 117.973C335.641 112.113 334.892 106.905 333.395 102.348C331.962 97.7904 329.781 94.2747 326.852 91.8008C323.922 89.2617 320.374 87.9922 316.207 87.9922C311.975 87.9922 308.329 89.2617 305.27 91.8008C302.275 94.2747 299.996 97.7578 298.434 102.25C296.871 106.742 296.09 111.983 296.09 117.973C296.09 124.027 296.871 129.333 298.434 133.891C299.996 138.383 302.275 141.898 305.27 144.438C308.329 146.911 311.975 148.148 316.207 148.148ZM380.422 29.5938H413.332V83.1094H414.113C414.309 82.7188 414.471 82.3607 414.602 82.0352C414.732 81.7096 414.862 81.3516 414.992 80.9609C416.75 77.5755 418.898 74.6133 421.438 72.0742C423.977 69.5352 427.134 67.4844 430.91 65.9219C434.686 64.3594 439.048 63.5781 443.996 63.5781C451.809 63.5781 458.905 65.5638 465.285 69.5352C471.73 73.5065 476.874 79.5938 480.715 87.7969C484.556 95.9349 486.477 105.993 486.477 117.973C486.477 129.626 484.589 139.587 480.812 147.855C477.102 156.059 472.023 162.243 465.578 166.41C459.198 170.512 451.971 172.562 443.898 172.562C439.016 172.562 434.621 171.781 430.715 170.219C426.874 168.591 423.651 166.54 421.047 164.066C418.508 161.527 416.392 158.598 414.699 155.277L414.113 153.91H412.844V171H380.422V29.5938ZM412.648 117.875C412.648 123.734 413.43 128.845 414.992 133.207C416.62 137.504 418.931 140.857 421.926 143.266C424.921 145.609 428.501 146.781 432.668 146.781C436.9 146.781 440.513 145.577 443.508 143.168C446.568 140.759 448.846 137.406 450.344 133.109C451.906 128.747 452.688 123.669 452.688 117.875C452.688 112.081 451.906 107.035 450.344 102.738C448.846 98.4414 446.6 95.1536 443.605 92.875C440.611 90.5312 436.965 89.3594 432.668 89.3594C428.436 89.3594 424.823 90.4987 421.828 92.7773C418.898 95.056 416.62 98.3438 414.992 102.641C413.43 106.938 412.648 112.016 412.648 117.875ZM559.285 126.371C556.16 126.436 551.928 126.632 546.59 126.957L537.801 127.738C533.569 128.129 530.216 129.431 527.742 131.645C525.333 133.858 524.129 136.658 524.129 140.043C524.129 142.322 524.715 144.307 525.887 146C527.059 147.628 528.686 148.865 530.77 149.711C532.853 150.557 535.229 150.98 537.898 150.98C541.609 150.98 544.995 150.232 548.055 148.734C551.115 147.172 553.523 145.056 555.281 142.387C557.039 139.652 557.918 136.625 557.918 133.305L557.625 98.6367C557.625 96.1628 557.072 94.0469 555.965 92.2891C554.858 90.4661 553.198 89.1315 550.984 88.2852C548.771 87.3737 546.167 86.918 543.172 86.918C538.875 86.918 535.359 87.862 532.625 89.75C529.891 91.5729 528.23 94.2422 527.645 97.7578H496.785C497.371 91.3776 499.52 85.5833 503.23 80.375C507.007 75.1667 512.312 71.0651 519.148 68.0703C526.049 65.0755 534.285 63.5781 543.855 63.5781C552.775 63.5781 560.75 64.9779 567.781 67.7773C574.878 70.5117 580.444 74.5482 584.48 79.8867C588.582 85.2253 590.633 91.6055 590.633 99.0273V171H559.578V156.254H558.797C556.909 159.77 554.5 162.764 551.57 165.238C548.641 167.647 545.223 169.503 541.316 170.805C537.41 172.107 532.918 172.758 527.84 172.758C521.004 172.758 514.949 171.586 509.676 169.242C504.467 166.898 500.366 163.383 497.371 158.695C494.376 154.008 492.879 148.279 492.879 141.508C492.879 130.44 496.492 122.335 503.719 117.191C510.945 111.983 520.418 109.021 532.137 108.305C534.35 108.109 540.307 107.816 550.008 107.426L559.09 107.035L559.285 126.371ZM634.633 103.227H639.223L669.789 64.9453H707.289L662.66 119.145H654.164L634.535 142.582L634.633 103.227ZM604.848 29.5938H637.758V171H604.848V29.5938ZM642.348 126.469L664.027 103.129L708.852 171H670.766L642.348 126.469ZM862.977 171H830.066V64.9453H861.316V84.1836H862.391C864.865 77.8034 868.901 72.7904 874.5 69.1445C880.099 65.4336 886.805 63.5781 894.617 63.5781C902.039 63.5781 908.517 65.2383 914.051 68.5586C919.585 71.8138 923.849 76.4362 926.844 82.4258C929.904 88.4154 931.434 95.3815 931.434 103.324V171H898.523V109.672C898.523 105.635 897.84 102.217 896.473 99.418C895.171 96.6185 893.217 94.4375 890.613 92.875C888.009 91.3125 884.852 90.5312 881.141 90.5312C877.495 90.5312 874.305 91.3451 871.57 92.9727C868.836 94.5352 866.72 96.7812 865.223 99.7109C863.725 102.641 862.977 106.156 862.977 110.258V171ZM979.242 171H946.332V29.5938H979.242V171ZM1043.75 172.953C1032.81 172.953 1023.31 170.772 1015.23 166.41C1007.23 162.048 1001.04 155.766 996.68 147.562C992.383 139.359 990.234 129.626 990.234 118.363C990.234 107.491 992.383 97.9206 996.68 89.6523C1001.04 81.319 1007.19 74.9062 1015.14 70.4141C1023.08 65.8568 1032.29 63.5781 1042.77 63.5781C1052.8 63.5781 1061.65 65.6615 1069.34 69.8281C1077.02 73.9948 1083.01 80.1471 1087.3 88.2852C1091.6 96.4232 1093.75 106.189 1093.75 117.582V126.078H1002.15V106.645H1063.09C1063.09 102.934 1062.21 99.6133 1060.45 96.6836C1058.76 93.7539 1056.41 91.4753 1053.42 89.8477C1050.49 88.2201 1047.14 87.4062 1043.36 87.4062C1039.45 87.4062 1035.94 88.2852 1032.81 90.043C1029.69 91.7357 1027.25 94.112 1025.49 97.1719C1023.73 100.167 1022.79 103.52 1022.66 107.23V126.664C1022.66 131.156 1023.54 135.128 1025.29 138.578C1027.05 141.964 1029.56 144.568 1032.81 146.391C1036.13 148.214 1039.97 149.125 1044.34 149.125C1047.27 149.125 1049.97 148.702 1052.44 147.855C1054.92 147.009 1057 145.87 1058.69 144.438C1060.45 142.94 1061.75 141.182 1062.6 139.164H1093.36C1092.06 145.935 1089.23 151.892 1084.86 157.035C1080.57 162.113 1074.87 166.052 1067.77 168.852C1060.74 171.586 1052.73 172.953 1043.75 172.953ZM1137.55 171H1104.64V64.9453H1135.89V84.1836H1136.97C1139.44 77.8034 1143.48 72.7904 1149.08 69.1445C1154.68 65.4336 1161.38 63.5781 1169.2 63.5781C1176.62 63.5781 1183.1 65.2383 1188.63 68.5586C1194.16 71.8138 1198.43 76.4362 1201.42 82.4258C1204.48 88.4154 1206.01 95.3815 1206.01 103.324V171H1173.1V109.672C1173.1 105.635 1172.42 102.217 1171.05 99.418C1169.75 96.6185 1167.8 94.4375 1165.19 92.875C1162.59 91.3125 1159.43 90.5312 1155.72 90.5312C1152.07 90.5312 1148.88 91.3451 1146.15 92.9727C1143.41 94.5352 1141.3 96.7812 1139.8 99.7109C1138.3 102.641 1137.55 106.156 1137.55 110.258V171Z" fill="#FAFAFA"/>
<path d="M167.6 110C167.2 119.067 165.333 127.733 162 136C158.8 144.133 154.067 151.4 147.8 157.8C141.667 164.2 133.933 169.2 124.6 172.8C115.4 176.4 104.667 178.2 92.4 178.2C80.6667 178.2 69.6667 176.533 59.4 173.2C49.1333 169.733 40.0667 164.667 32.2 158C24.4667 151.333 18.4 143.133 14 133.4C9.73333 123.667 7.6 112.533 7.6 100C7.6 87.4667 9.8 76.3333 14.2 66.6C18.6 56.8667 24.7333 48.6667 32.6 42C40.6 35.3333 49.8 30.3333 60.2 27C70.7333 23.5333 82.2 21.8 94.6 21.8C111.133 21.8 125.4 24.3333 137.4 29.4C149.4 34.4667 159.067 41.4 166.4 50.2C173.733 59 178.467 69.2 180.6 80.8H138.8C137.467 75.7333 134.733 71.4 130.6 67.8C126.6 64.0667 121.533 61.2667 115.4 59.4C109.4 57.4 102.533 56.4 94.8 56.4C85.4667 56.4 77.4 58.0667 70.6 61.4C63.8 64.6 58.5333 69.4667 54.8 76C51.0667 82.4 49.2 90.4 49.2 100C49.2 109.733 51.2 117.933 55.2 124.6C59.2 131.267 64.8667 136.267 72.2 139.6C79.6667 142.933 88.4 144.6 98.4 144.6C108.133 144.6 116.733 143.267 124.2 140.6C131.667 137.8 137.6 133.733 142 128.4C146.533 123.067 149.133 116.667 149.8 109.2L167.6 110ZM102.4 126.6V97.4H182V175H152.6L146.8 115.6L154.6 126.6H102.4Z" fill="#20B231"/>
<path d="M716.88 136.96L753.96 132.28L768.18 137.14L782.4 132.28L819.66 136.96V175.12L768.36 168.64L716.88 175.12V136.96ZM768.18 145.6C757.38 143.92 747.9 140.56 739.74 135.52C731.58 130.6 725.22 124.3 720.66 116.62C716.22 109.06 714 100.42 714 90.7C714 80.62 716.22 71.74 720.66 64.06C725.22 56.5 731.58 50.56 739.74 46.24C748.02 41.92 757.5 39.76 768.18 39.76C779.1 39.76 788.64 41.92 796.8 46.24C804.96 50.56 811.32 56.5 815.88 64.06C820.44 71.74 822.72 80.62 822.72 90.7C822.72 100.42 820.44 109.06 815.88 116.62C811.44 124.3 805.14 130.66 796.98 135.7C788.94 140.74 779.34 144.04 768.18 145.6ZM768.18 77.02C763.14 77.02 758.64 78.04 754.68 80.08C750.72 82.24 747.6 85.18 745.32 88.9C743.16 92.62 742.08 96.88 742.08 101.68C742.08 106.72 743.16 111.46 745.32 115.9C747.6 120.34 750.72 124.24 754.68 127.6C758.64 130.96 763.14 133.48 768.18 135.16C773.34 133.48 777.9 130.96 781.86 127.6C785.82 124.24 788.94 120.34 791.22 115.9C793.5 111.46 794.64 106.72 794.64 101.68C794.64 96.88 793.5 92.62 791.22 88.9C788.94 85.18 785.82 82.24 781.86 80.08C777.9 78.04 773.34 77.02 768.18 77.02Z" fill="#20B231"/>
</svg>
